# Exported from Wings 3D 1.5.4
mtllib cobshot.mtl
o unnamed_object2_sep53
#50 vertices, 77 faces
v -3.2849651e-2 -1.00337533 8.0433825e-3
v -3.2849651e-2 -1.00379548 8.0433825e-3
v 0.36343114 -0.63056631 0.15966881
v -3.2849651e-2 -1.00080045 8.0433825e-3
v 8.8062224e-2 -0.62545303 0.40584430
v 0.34266449 -0.63140193 -0.20914330
v 0.40793249 -0.12665767 0.17153627
v 0.10658171 -0.12106064 0.44093712
v -3.2849651e-2 -0.99800967 8.0433825e-3
v -0.27608050 -0.61990963 0.34400110
v -0.29191887 -0.11499804 0.37326397
v -0.25390511 0.48775330 0.33438810
v 0.10341358 0.48231423 0.39506684
v 0.37362183 0.47729829 0.15350802
v -0.16547689 0.84852873 0.22596473
v 7.2354294e-2 0.84491090 0.26635414
v 0.25220345 0.84157224 0.10557179
v 0.35324408 0.47647710 -0.20839245
v 0.23864149 0.84102711 -0.13530881
v -1.3313706e-3 1.00015376 1.7434713e-3
v 0.38520575 -0.12757188 -0.23207443
v -3.2849651e-2 -1.00174440 8.0433825e-3
v 4.1403283e-2 -0.62732820 -0.42287309
v -3.2849651e-2 -0.99876669 8.0433825e-3
v -0.31349797 -0.62141459 -0.32057421
v 5.5520561e-2 -0.12311226 -0.46597031
v 5.7629090e-2 0.48047453 -0.41811585
v -0.33286664 -0.11664316 -0.35401949
v -0.45479190 -0.61811328 2.0717206e-2
v -0.48749053 -0.11303112 1.9474171e-2
v -0.29062119 0.48627781 -0.31773534
v 4.1879965e-2 0.84368698 -0.27490045
v -0.18991528 0.84754955 -0.20808705
v -0.42926562 0.48951487 1.7160454e-2
v -0.28219768 0.84970386 1.4819409e-2
v -3.2849651e-2 -0.99710459 8.0433825e-3
v 0.23545628 -0.81697082 0.11390736
v 0.11154027 -0.81441418 0.22468633
v 0.23075067 -0.81718090 3.0330529e-2
v 0.22140568 -0.81759870 -0.13563492
v 4.9139251e-2 -0.81312674 0.28047168
v -3.3379279e-2 -0.81173135 0.26645815
v 0.15313692 -0.81657316 -0.18406778
v -0.19724351 -0.80895965 0.23862871
v -0.23774124 -0.80850711 0.16536889
v 1.7569372e-2 -0.81453630 -0.28024618
v -6.2854963e-2 -0.81304744 -0.25706477
v -0.22256053 -0.81009064 -0.21103027
v -0.28614280 -0.80843999 -5.7449133e-2
v -0.31816137 -0.80760893 1.9891138e-2
vt 5.0997300e-4 0.49509100
vt 5.0997300e-4 0.61496400
vt 5.0997300e-4 0.76992800
vt 5.0997500e-4 0.42288150
vt 5.0997700e-4 0.35067200
vt 5.1006600e-4 0.90184900
vt 5.1293700e-4 0.49507900
vt 5.1293700e-4 0.61500900
vt 5.1293700e-4 0.76982100
vt 5.1294000e-4 0.42287550
vt 5.1294300e-4 0.35067200
vt 5.1308200e-4 0.90185700
vt 4.4035186e-2 0.42288150
vt 5.1552200e-2 0.99628300
vt 6.1246400e-2 0.99641500
vt 6.7593471e-2 0.42287550
vt 8.7560400e-2 0.35067200
vt 8.7560400e-2 0.42288150
vt 8.7560400e-2 0.49509100
vt 8.7560400e-2 0.61496400
vt 8.7560400e-2 0.76992800
vt 0.10006100 0.90184900
vt 0.12398000 0.90185700
vt 0.13322400 0.99628200
vt 0.13467400 0.35067200
vt 0.13467400 0.42287550
vt 0.13467400 0.49507900
vt 0.13467400 0.61500900
vt 0.13467400 0.76982100
vt 0.13531370 0.42288150
vt 0.17920400 0.90184900
vt 0.18306700 0.35067200
vt 0.18306700 0.42288150
vt 0.18306700 0.49509100
vt 0.18306700 0.61496400
vt 0.18306700 0.76992800
vt 0.19019200 0.99641500
vt 0.19814150 0.42287550
vt 0.21709600 0.99635100
vt 0.22789150 0.42288150
vt 0.25529400 0.90185700
vt 0.26077800 0.90184900
vt 0.26160900 0.35067200
vt 0.26160900 0.42287550
vt 0.26160900 0.49507900
vt 0.26160900 0.61500900
vt 0.26160900 0.76982100
vt 0.27271600 0.35067200
vt 0.27271600 0.42288150
vt 0.27271600 0.49509100
vt 0.27271600 0.61496400
vt 0.27271600 0.76992800
vt 0.29914000 0.99638000
vt 0.29999000 0.99639800
vt 0.31148150 0.42287350
vt 0.31702800 0.42288150
vt 0.36134000 0.35067500
vt 0.36134000 0.42288300
vt 0.36134000 0.49509100
vt 0.36134000 0.61496400
vt 0.36134000 0.76992800
vt 0.36134000 0.90184900
vt 0.36135400 0.35066800
vt 0.36135400 0.42287350
vt 0.36135400 0.49507900
vt 0.36135400 0.61500900
vt 0.36135400 0.76982100
vt 0.36135400 0.90185700
vn 0.45477418 -0.83751183 0.30290984
vn 0.50602688 -0.84161279 -0.18874511
vn 0.85633298 -0.35724055 0.37292496
vn 0.11393862 -0.83395108 0.53994776
vn 0.24403894 -0.42417234 0.87207960
vn 0.81910385 -0.37051107 -0.43793884
vn 0.97276219 -1.4512503e-2 0.23135061
vn 0.27694583 -1.2539338e-3 0.96088471
vn -0.26804029 -0.82636780 0.49524808
vn -0.53662514 -0.33592205 0.77407353
vn -0.70039715 1.3363379e-2 0.71362823
vn -0.55758902 0.22847709 0.79805558
vn 0.27167386 0.25596834 0.92772492
vn 0.90347383 0.20413342 0.37691457
vn -0.37399855 0.60724654 0.70098268
vn 0.21918769 0.65565924 0.72254253
vn 0.70812964 0.58921911 0.38906715
vn 0.85835834 0.21094469 -0.46767862
vn 0.74551623 0.59413042 -0.30201752
vn 1.6529114e-2 0.99986329 -4.4127791e-4
vn 0.78733517 -1.4256643e-2 -0.61636034
vn 0.14867456 -0.83967785 -0.52233800
vn 0.16453963 -0.37032693 -0.91421260
vn -0.38162866 -0.83634668 -0.39355278
vn -0.64585915 -0.26420161 -0.71628449
vn 7.1811524e-2 -2.0917962e-2 -0.99719885
vn 0.16759262 0.17681922 -0.96986993
vn -0.59151299 2.3608421e-2 -0.80594977
vn -0.93668501 -0.34335293 6.8774660e-2
vn -0.99458914 1.5433073e-2 -0.10273399
vn -0.64813750 0.24015361 -0.72266453
vn 0.14610408 0.57369138 -0.80593535
vn -0.58168285 0.62128508 -0.52502373
vn -0.96863782 0.24138488 5.8941605e-2
vn -0.77322291 0.61943339 0.13575197
vn -0.54844155 -0.82709488 0.12298746
vn 0.62910583 -0.72864112 0.27075445
vn 0.47222944 -0.68611884 0.55338982
vn 0.71537132 -0.69773715 -3.7506511e-2
vn 0.58643875 -0.73868957 -0.33230606
vn 0.16769558 -0.71877075 0.67471979
vn -0.14082284 -0.67721679 0.72218166
vn 0.39962817 -0.70429556 -0.58674108
vn -0.41098834 -0.71667363 0.56344254
vn -0.64391188 -0.68071706 0.34928753
vn 9.4252627e-2 -0.74056707 -0.66533966
vn -0.21622238 -0.70118585 -0.67940141
vn -0.46202564 -0.73295812 -0.49930422
vn -0.67106991 -0.69200612 -0.26606899
vn -0.69023245 -0.72208021 4.6683361e-2
g unnamed_object2_sep53_DefaultMaterial
usemtl DefaultMaterial
s 1
f 1/43/1 38/38/38 41/26/41 4/25/4
f 2/5/2 22/17/22 43/13/43 40/4/40
f 2/63/2 39/55/39 37/44/37 1/43/1
f 2/63/2 40/64/40 39/55/39
f 3/45/3 8/28/8 5/27/5
f 3/45/3 39/55/39 40/64/40 6/65/6
f 5/27/5 10/7/10 44/10/44 42/16/42
f 5/27/5 38/38/38 37/44/37 3/45/3
f 5/27/5 41/26/41 38/38/38
f 6/65/6 7/46/7 3/45/3
f 6/65/6 21/66/21 7/46/7
f 6/1/6 23/19/23 21/2/21
f 6/1/6 40/4/40 43/13/43
f 7/46/7 8/28/8 3/45/3
f 7/46/7 14/47/14 8/28/8
f 7/46/7 18/67/18 14/47/14
f 7/46/7 21/66/21 18/67/18
f 8/28/8 10/7/10 5/27/5
f 8/28/8 11/8/11 10/7/10
f 8/28/8 12/9/12 11/8/11
f 8/28/8 13/29/13 12/9/12
f 8/28/8 14/47/14 13/29/13
f 9/11/9 42/16/42 44/10/44
f 11/60/11 29/50/29 10/59/10
f 11/60/11 30/51/30 29/50/29
f 11/60/11 34/52/34 30/51/30
f 12/61/12 34/52/34 11/60/11
f 12/61/12 35/42/35 34/52/34
f 13/29/13 15/12/15 12/9/12
f 13/29/13 16/23/16 15/12/15
f 13/29/13 17/41/17 16/23/16
f 14/47/14 17/41/17 13/29/13
f 14/47/14 19/68/19 17/41/17
f 15/62/15 35/42/35 12/61/12
f 16/23/16 20/15/20 15/12/15
f 17/41/17 20/37/20 16/23/16
f 18/67/18 19/68/19 14/47/14
f 18/3/18 32/22/32 19/6/19
f 19/68/19 20/53/20 17/41/17
f 19/6/19 32/22/32 20/14/20
f 20/54/20 35/42/35 15/62/15
f 21/2/21 27/21/27 18/3/18
f 22/17/22 24/32/24 47/30/47 46/18/46
f 23/19/23 26/20/26 21/2/21
f 23/19/23 46/18/46 47/30/47
f 24/32/24 36/48/36 50/49/50 49/40/49
f 24/32/24 49/40/49 48/33/48
f 25/34/25 26/20/26 23/19/23
f 25/34/25 28/35/28 26/20/26
f 25/34/25 30/51/30 28/35/28
f 25/34/25 48/33/48 49/40/49 29/50/29
f 26/20/26 27/21/27 21/2/21
f 26/20/26 28/35/28 27/21/27
f 27/21/27 32/22/32 18/3/18
f 28/35/28 31/36/31 27/21/27
f 29/50/29 30/51/30 25/34/25
f 29/50/29 49/40/49 50/49/50
f 29/50/29 50/49/50 45/56/45 10/59/10
f 30/51/30 31/36/31 28/35/28
f 30/51/30 34/52/34 31/36/31
f 31/36/31 32/22/32 27/21/27
f 31/36/31 33/31/33 32/22/32
f 31/36/31 34/52/34 33/31/33
f 32/22/32 33/31/33 20/24/20
f 33/31/33 35/42/35 20/39/20
f 34/52/34 35/42/35 33/31/33
f 37/44/37 38/38/38 1/43/1
f 37/44/37 39/55/39 3/45/3
f 41/26/41 42/16/42 9/11/9 4/25/4
f 42/16/42 41/26/41 5/27/5
f 43/13/43 46/18/46 23/19/23 6/1/6
f 44/58/44 45/56/45 36/48/36 9/57/9
f 45/56/45 44/58/44 10/59/10
f 45/56/45 50/49/50 36/48/36
f 46/18/46 43/13/43 22/17/22
f 47/30/47 48/33/48 25/34/25 23/19/23
f 48/33/48 47/30/47 24/32/24
