# Exported from Wings 3D 1.5.4
mtllib conveyor_segment.mtl
o Cylinder1_copy5
#8 vertices, 4 faces
v -1.00000000 -0.50000000 2.00000000
v -1.00000000 0.50000000 2.00000000
v -1.00000000 -0.50000000 -2.00000000
v -1.00000000 0.50000000 -2.00000000
v 1.00000000 -0.50000000 2.00000000
v 1.00000000 0.50000000 2.00000000
v 1.00000000 -0.50000000 -2.00000000
v 1.00000000 0.50000000 -2.00000000
vt -1.6219665e-16 0.50000000
vt 5.9847960e-17 0.50000000
vt 5.9847960e-17 1.00000000
vt 2.2638141e-16 1.00000000
vt 0.25000000 0.50000000
vt 0.25000000 0.50000000
vt 0.25000000 1.00000000
vt 0.25000000 1.00000000
vn 0.0000000e+0 -1.00000000 5.5511151e-17
vn 0.0000000e+0 -1.00000000 5.5511151e-17
vn 0.0000000e+0 1.00000000 -5.5511151e-17
vn 0.0000000e+0 1.00000000 -5.5511151e-17
vn 0.0000000e+0 -1.00000000 5.5511151e-17
vn 0.0000000e+0 1.00000000 -5.5511151e-17
vn 0.0000000e+0 -1.00000000 5.5511151e-17
vn 0.0000000e+0 1.00000000 -5.5511151e-17
vn 0.0000000e+0 -1.00000000 5.5511151e-17
vn 0.0000000e+0 -1.00000000 5.5511151e-17
vn 0.0000000e+0 1.00000000 -5.5511151e-17
vn 0.0000000e+0 1.00000000 -5.5511151e-17
g Cylinder1_copy5_Cylinder1_auv
usemtl Cylinder1_auv
s 1
f 2/1/3 8/7/11 4/4/6
f 6/5/8 8/7/12 2/1/4
s 2
f 1/6/1 7/3/9 5/2/7
f 3/8/5 7/3/10 1/6/2
o Cylinder1_cut4
#24 vertices, 40 faces
v -1.00000000 -0.50000000 2.00000000
v -1.00000000 0.50000000 2.00000000
v -1.00000000 -0.50000000 -2.00000000
v -1.00000000 0.50000000 -2.00000000
v 1.00000000 -0.50000000 2.00000000
v 1.00000000 0.50000000 2.00000000
v 1.00000000 -0.50000000 -2.00000000
v 1.00000000 0.50000000 -2.00000000
v 1.00000000 -0.40000000 -2.00000000
v -1.00000000 -0.40000000 -2.00000000
v -1.00000000 0.40000000 -2.00000000
v 1.00000000 0.40000000 -2.00000000
v 1.00000000 0.40000000 2.00000000
v -1.00000000 0.40000000 2.00000000
v -1.00000000 -0.40000000 2.00000000
v 1.00000000 -0.40000000 2.00000000
v 1.00000000 0.40000000 1.90000000
v -1.00000000 0.40000000 1.90000000
v -1.00000000 -0.40000000 1.90000000
v 1.00000000 -0.40000000 1.90000000
v 1.00000000 -0.40000000 -1.90000000
v -1.00000000 -0.40000000 -1.90000000
v -1.00000000 0.40000000 -1.90000000
v 1.00000000 0.40000000 -1.90000000
vt 3.0000000e-2 0.13250000
vt 3.0000000e-2 0.13250000
vt 3.0000000e-2 0.13250000
vt 3.0000000e-2 0.13250000
vt 3.0000000e-2 0.13250000
vt 3.0000000e-2 0.14750000
vt 3.0000000e-2 0.14750000
vt 3.0000000e-2 0.14750000
vt 3.0000000e-2 0.14750000
vt 6.0000000e-2 0.47000000
vt 6.0000000e-2 0.27200000
vt 6.0000000e-2 0.44800000
vt 6.0000000e-2 0.25000000
vt 6.0000000e-2 0.25000000
vt 6.0000000e-2 0.27200000
vt 6.0000000e-2 0.44800000
vt 6.0000000e-2 0.47000000
vt 8.2000000e-2 0.27200000
vt 8.2000000e-2 0.44800000
vt 8.2000000e-2 0.44800000
vt 8.2000000e-2 0.27200000
vt 0.33000000 0.13250000
vt 0.33000000 0.13250000
vt 0.33000000 0.13250000
vt 0.33000000 0.13250000
vt 0.33000000 0.13250000
vt 0.33000000 0.14750000
vt 0.33000000 0.14750000
vt 0.33000000 0.14750000
vt 0.33000000 0.14750000
vt 0.62000000 9.0000000e-2
vt 0.62000000 0.21000000
vt 0.62000000 0.21000000
vt 0.91800000 0.27200000
vt 0.91800000 0.44800000
vt 0.91800000 0.27200000
vt 0.91800000 0.44800000
vt 0.92000000 9.0000000e-2
vt 0.92000000 9.0000000e-2
vt 0.92000000 0.21000000
vt 0.94000000 0.25000000
vt 0.94000000 0.44800000
vt 0.94000000 0.47000000
vt 0.94000000 0.25000000
vt 0.94000000 0.27200000
vt 0.94000000 0.44800000
vt 0.94000000 0.47000000
vn 0.0000000e+0 0.0000000e+0 1.00000000
vn -1.00000000 -7.4014868e-16 4.2167729e-32
vn -1.00000000 -7.4014868e-16 4.2167729e-32
vn -1.00000000 -7.4014868e-16 4.2167729e-32
vn 0.0000000e+0 0.0000000e+0 1.00000000
vn -1.00000000 -1.4802974e-15 8.4335459e-32
vn -1.00000000 -1.4802974e-15 8.4335459e-32
vn -1.00000000 -1.4802974e-15 8.4335459e-32
vn 0.0000000e+0 0.0000000e+0 1.00000000
vn 0.0000000e+0 0.0000000e+0 -1.00000000
vn -1.00000000 -1.1102230e-15 3.0814879e-32
vn -1.00000000 -1.1102230e-15 3.0814879e-32
vn 0.0000000e+0 0.0000000e+0 -1.00000000
vn -1.00000000 -2.2204460e-15 6.1629758e-32
vn -1.00000000 -2.2204460e-15 6.1629758e-32
vn 0.0000000e+0 0.0000000e+0 -1.00000000
vn 0.0000000e+0 0.0000000e+0 1.00000000
vn 1.00000000 0.0000000e+0 0.0000000e+0
vn 1.00000000 0.0000000e+0 0.0000000e+0
vn 1.00000000 0.0000000e+0 0.0000000e+0
vn 0.0000000e+0 0.0000000e+0 1.00000000
vn 1.00000000 0.0000000e+0 0.0000000e+0
vn 1.00000000 0.0000000e+0 0.0000000e+0
vn 1.00000000 0.0000000e+0 0.0000000e+0
vn 0.0000000e+0 0.0000000e+0 1.00000000
vn 0.0000000e+0 0.0000000e+0 -1.00000000
vn 1.00000000 0.0000000e+0 0.0000000e+0
vn 0.0000000e+0 0.0000000e+0 -1.00000000
vn 1.00000000 0.0000000e+0 0.0000000e+0
vn 1.00000000 0.0000000e+0 0.0000000e+0
vn 1.00000000 0.0000000e+0 0.0000000e+0
vn 0.0000000e+0 0.0000000e+0 -1.00000000
vn 0.0000000e+0 0.0000000e+0 -1.00000000
vn 1.00000000 0.0000000e+0 0.0000000e+0
vn 0.0000000e+0 1.00000000 0.0000000e+0
vn 0.0000000e+0 0.0000000e+0 -1.00000000
vn 0.0000000e+0 1.00000000 0.0000000e+0
vn 0.0000000e+0 0.0000000e+0 -1.00000000
vn -1.00000000 0.0000000e+0 0.0000000e+0
vn 0.0000000e+0 1.00000000 0.0000000e+0
vn 0.0000000e+0 0.0000000e+0 -1.00000000
vn -1.00000000 0.0000000e+0 0.0000000e+0
vn 0.0000000e+0 -1.00000000 0.0000000e+0
vn 0.0000000e+0 0.0000000e+0 -1.00000000
vn 0.0000000e+0 -1.00000000 0.0000000e+0
vn 1.00000000 0.0000000e+0 0.0000000e+0
vn 0.0000000e+0 -1.00000000 0.0000000e+0
vn 0.0000000e+0 0.0000000e+0 -1.00000000
vn 0.0000000e+0 0.0000000e+0 1.00000000
vn 1.00000000 0.0000000e+0 0.0000000e+0
vn 0.0000000e+0 -1.00000000 0.0000000e+0
vn 0.0000000e+0 0.0000000e+0 1.00000000
vn 0.0000000e+0 -1.00000000 0.0000000e+0
vn -1.00000000 0.0000000e+0 0.0000000e+0
vn 0.0000000e+0 -1.00000000 0.0000000e+0
vn 0.0000000e+0 0.0000000e+0 1.00000000
vn 0.0000000e+0 0.0000000e+0 1.00000000
vn -1.00000000 0.0000000e+0 0.0000000e+0
vn 0.0000000e+0 1.00000000 0.0000000e+0
vn 0.0000000e+0 0.0000000e+0 1.00000000
vn 0.0000000e+0 1.00000000 0.0000000e+0
vn 0.0000000e+0 1.00000000 0.0000000e+0
vn 0.0000000e+0 0.0000000e+0 1.00000000
vn 1.00000000 0.0000000e+0 0.0000000e+0
vn 0.0000000e+0 -1.00000000 0.0000000e+0
vn 1.00000000 0.0000000e+0 0.0000000e+0
vn 1.00000000 0.0000000e+0 0.0000000e+0
vn 0.0000000e+0 0.0000000e+0 1.00000000
vn 1.00000000 0.0000000e+0 0.0000000e+0
vn 1.00000000 0.0000000e+0 0.0000000e+0
vn 0.0000000e+0 0.0000000e+0 1.00000000
vn 0.0000000e+0 -1.00000000 0.0000000e+0
vn 0.0000000e+0 -1.00000000 0.0000000e+0
vn 0.0000000e+0 0.0000000e+0 1.00000000
vn -1.00000000 0.0000000e+0 4.3248953e-32
vn -1.00000000 0.0000000e+0 4.3248953e-32
vn -1.00000000 0.0000000e+0 4.3248953e-32
vn 0.0000000e+0 1.00000000 0.0000000e+0
vn 0.0000000e+0 0.0000000e+0 1.00000000
vn -1.00000000 0.0000000e+0 1.6218357e-32
vn -1.00000000 0.0000000e+0 1.6218357e-32
vn -1.00000000 0.0000000e+0 1.6218357e-32
vn 0.0000000e+0 0.0000000e+0 1.00000000
vn -1.00000000 0.0000000e+0 1.6218357e-32
vn 0.0000000e+0 1.00000000 0.0000000e+0
vn 0.0000000e+0 1.00000000 0.0000000e+0
vn 0.0000000e+0 0.0000000e+0 1.00000000
vn 1.00000000 0.0000000e+0 0.0000000e+0
vn 1.00000000 0.0000000e+0 0.0000000e+0
vn 1.00000000 0.0000000e+0 0.0000000e+0
vn 0.0000000e+0 1.00000000 0.0000000e+0
vn 1.00000000 0.0000000e+0 0.0000000e+0
vn 1.00000000 0.0000000e+0 0.0000000e+0
vn 0.0000000e+0 0.0000000e+0 -1.00000000
vn 0.0000000e+0 1.00000000 0.0000000e+0
vn 1.00000000 0.0000000e+0 0.0000000e+0
vn 0.0000000e+0 0.0000000e+0 -1.00000000
vn 1.00000000 0.0000000e+0 0.0000000e+0
vn 1.00000000 0.0000000e+0 0.0000000e+0
vn 0.0000000e+0 1.00000000 0.0000000e+0
vn -1.00000000 -5.5511151e-16 3.1625797e-32
vn -1.00000000 -5.5511151e-16 3.1625797e-32
vn -1.00000000 -5.5511151e-16 3.1625797e-32
vn -1.00000000 -5.5511151e-16 3.1625797e-32
vn 0.0000000e+0 0.0000000e+0 -1.00000000
vn 0.0000000e+0 -1.00000000 0.0000000e+0
vn 0.0000000e+0 0.0000000e+0 -1.00000000
vn -1.00000000 -8.8817842e-16 5.0601275e-32
vn -1.00000000 -8.8817842e-16 5.0601275e-32
vn -1.00000000 -8.8817842e-16 5.0601275e-32
vn -1.00000000 -8.8817842e-16 5.0601275e-32
vn -1.00000000 -8.8817842e-16 5.0601275e-32
vn 0.0000000e+0 -1.00000000 0.0000000e+0
vn 0.0000000e+0 0.0000000e+0 -1.00000000
vn 0.0000000e+0 -1.00000000 0.0000000e+0
vn 1.00000000 0.0000000e+0 0.0000000e+0
vn 0.0000000e+0 0.0000000e+0 -1.00000000
vn 1.00000000 0.0000000e+0 0.0000000e+0
vn 1.00000000 0.0000000e+0 0.0000000e+0
vn 1.00000000 0.0000000e+0 0.0000000e+0
g Cylinder1_cut4_default
usemtl default
s 1
f 10/14/21 22/9/68 14/38/37
f 16/17/44 20/13/60 12/38/28
f 19/33/53 12/38/25 20/13/56
f 21/34/61 14/38/33 22/9/64
f 24/32/74 27/16/97 23/12/71
f 27/16/90 24/32/73 28/36/98
f 30/47/117 31/48/126 29/39/109
f 32/40/129 29/39/106 31/48/119
s 2
f 11/30/22 18/35/50 15/11/40
f 13/33/29 24/38/75 9/13/17
f 17/16/45 15/11/38 18/35/48
f 20/15/59 31/31/125 19/37/55
f 22/33/67 25/17/84 21/13/63
f 23/17/69 9/13/13 24/38/72
f 25/17/77 22/33/65 26/38/85
f 31/31/118 20/15/57 32/10/127
s 3
f 18/15/52 29/31/107 17/37/47
f 26/41/86 27/39/95 25/48/83
f 28/46/99 25/48/80 27/39/91
f 29/31/103 18/15/49 30/10/112
s 4
f 9/49/16 30/29/115 11/22/23
f 10/51/18 26/43/88 22/50/66
f 11/22/24 30/29/116 18/23/51
f 12/18/27 31/27/123 10/51/19
f 13/21/30 28/26/101 24/19/76
f 14/25/36 32/45/131 16/55/42
f 15/52/41 29/44/110 13/21/31
f 16/55/43 32/45/132 20/54/58
f 17/53/46 29/44/104 15/52/39
f 19/20/54 31/27/121 12/18/26
f 21/24/62 25/28/79 14/25/34
f 23/53/70 27/42/92 9/49/14
f 26/43/89 10/51/20 31/27/124
f 26/43/87 31/27/122 27/42/96
f 28/26/102 13/21/32 29/44/111
f 28/26/100 29/44/108 25/28/81
f 30/29/114 9/49/15 27/42/94
f 30/29/113 27/42/93 31/27/120
f 32/45/130 14/25/35 25/28/82
f 32/45/128 25/28/78 29/44/105
