# Exported from Wings 3D 1.5.4
mtllib conveyor_end.mtl
o Cylinder1_copy4
#18 vertices, 16 faces
v 0.0000000e+0 -0.50000000 2.00000000
v -0.25000000 -0.43301270 2.00000000
v -0.43301270 -0.25000000 2.00000000
v -0.50000000 7.5110128e-17 2.00000000
v -0.43301270 0.25000000 2.00000000
v -0.25000000 0.43301270 2.00000000
v 0.0000000e+0 0.50000000 2.00000000
v 0.0000000e+0 -0.50000000 -2.00000000
v -0.25000000 -0.43301270 -2.00000000
v -0.43301270 -0.25000000 -2.00000000
v -0.50000000 -1.6981923e-16 -2.00000000
v -0.43301270 0.25000000 -2.00000000
v -0.25000000 0.43301270 -2.00000000
v 0.0000000e+0 0.50000000 -2.00000000
v 0.50000000 -0.50000000 2.00000000
v 0.50000000 0.50000000 2.00000000
v 0.50000000 -0.50000000 -2.00000000
v 0.50000000 0.50000000 -2.00000000
vt 4.4285809e-4 0.50000000
vt 4.4285809e-4 1.00000000
vt 6.2942858e-2 0.50000000
vt 6.2942858e-2 1.00000000
vt 9.5295239e-2 0.50000000
vt 9.5295239e-2 1.00000000
vt 0.12764762 0.50000000
vt 0.12764762 1.00000000
vt 0.16000000 0.50000000
vt 0.16000000 1.00000000
vt 0.19235238 0.50000000
vt 0.19235238 1.00000000
vt 0.22470476 0.50000000
vt 0.22470476 1.00000000
vt 0.25705714 0.50000000
vt 0.25705714 1.00000000
vt 0.31955714 0.50000000
vt 0.31955714 1.00000000
vn -0.13052619 -0.99144486 5.5036246e-17
vn -0.13052619 -0.99144486 5.5036246e-17
vn -0.50000000 -0.86602540 4.8572257e-17
vn -0.50000000 -0.86602540 4.8572257e-17
vn -0.50000000 -0.86602540 4.8572257e-17
vn -0.50000000 -0.86602540 4.8572257e-17
vn -0.86602540 -0.50000000 2.9490299e-17
vn -0.86602540 -0.50000000 2.9490299e-17
vn -1.00000000 -3.0171421e-16 8.6736174e-19
vn -1.00000000 -3.0171421e-16 8.6736174e-19
vn -1.00000000 -3.0171421e-16 8.6736174e-19
vn -1.00000000 -3.1608155e-16 8.6736174e-19
vn -0.86602540 0.50000000 -2.7755576e-17
vn -0.86602540 0.50000000 -2.7755576e-17
vn -0.50000000 0.86602540 -4.8572257e-17
vn -0.50000000 0.86602540 -4.8572257e-17
vn -0.50000000 0.86602540 -4.8572257e-17
vn -0.50000000 0.86602540 -4.8572257e-17
vn -0.13052619 0.99144486 -5.5036246e-17
vn -0.13052619 0.99144486 -5.5036246e-17
vn -0.13052619 -0.99144486 5.5036246e-17
vn -0.13052619 -0.99144486 5.5036246e-17
vn -0.13052619 -0.99144486 5.5036246e-17
vn -0.13052619 -0.99144486 5.5036246e-17
vn -0.50000000 -0.86602540 4.8572257e-17
vn -0.50000000 -0.86602540 4.8572257e-17
vn -0.86602540 -0.50000000 2.9490299e-17
vn -0.86602540 -0.50000000 2.9490299e-17
vn -0.86602540 -0.50000000 2.9490299e-17
vn -0.86602540 -0.50000000 2.9490299e-17
vn -1.00000000 -3.1608155e-16 -7.9754776e-33
vn -1.00000000 -3.1608155e-16 -7.9754776e-33
vn -0.86602540 0.50000000 -2.8622937e-17
vn -0.86602540 0.50000000 -2.8622937e-17
vn -0.86602540 0.50000000 -2.8622937e-17
vn -0.86602540 0.50000000 -2.8622937e-17
vn -0.50000000 0.86602540 -4.8572257e-17
vn -0.50000000 0.86602540 -4.8572257e-17
vn -0.13052619 0.99144486 -5.5036246e-17
vn -0.13052619 0.99144486 -5.5036246e-17
vn -0.13052619 0.99144486 -5.5036246e-17
vn -0.13052619 0.99144486 -5.5036246e-17
vn 0.0000000e+0 -1.00000000 5.5511151e-17
vn 0.0000000e+0 -1.00000000 5.5511151e-17
vn 0.0000000e+0 1.00000000 -5.5511151e-17
vn 0.0000000e+0 1.00000000 -5.5511151e-17
vn 0.0000000e+0 -1.00000000 5.5511151e-17
vn 0.0000000e+0 1.00000000 -5.5511151e-17
g Cylinder1_copy4_Cylinder1_auv
usemtl Cylinder1_auv
s 2
f 2/5/6 8/4/23 1/3/1
f 2/5/3 10/8/28 9/6/25
f 3/7/8 10/8/30 2/5/5
f 4/9/12 10/8/29 3/7/7
f 4/9/9 12/12/34 11/10/31
f 5/11/14 12/12/36 4/9/11
f 6/13/18 12/12/35 5/11/13
f 6/13/15 14/16/39 13/14/37
f 7/15/19 14/16/41 6/13/17
f 8/4/24 15/1/44 1/3/2
f 9/6/26 8/4/21 2/5/4
f 11/10/32 10/8/27 4/9/10
f 13/14/38 12/12/33 6/13/16
f 14/16/40 16/17/45 18/18/48
f 16/17/46 14/16/42 7/15/20
f 17/2/47 15/1/43 8/4/22
o Cylinder1
#54 vertices, 88 faces
v 3.0616170e-17 -0.50000000 2.00000000
v -0.25000000 -0.43301270 2.00000000
v -0.43301270 -0.25000000 2.00000000
v -0.50000000 7.5110128e-17 2.00000000
v -0.43301270 0.25000000 2.00000000
v -0.25000000 0.43301270 2.00000000
v -9.1848510e-17 0.50000000 2.00000000
v 3.0616170e-17 -0.50000000 -2.00000000
v -0.25000000 -0.43301270 -2.00000000
v -0.43301270 -0.25000000 -2.00000000
v -0.50000000 -1.6981923e-16 -2.00000000
v -0.43301270 0.25000000 -2.00000000
v -0.25000000 0.43301270 -2.00000000
v -9.1848510e-17 0.50000000 -2.00000000
v 0.50000000 -0.50000000 2.00000000
v 0.50000000 0.50000000 2.00000000
v 0.50000000 -0.50000000 -2.00000000
v 0.50000000 0.50000000 -2.00000000
v 0.50000000 -0.40000000 -2.00000000
v 1.3165250e-2 -0.40000000 -2.00000000
v -0.19823619 -0.34335515 -2.00000000
v -0.34335515 -0.19823619 -2.00000000
v -0.39647238 -1.4899540e-16 -2.00000000
v -0.34335515 0.19823619 -2.00000000
v -0.19823619 0.34335515 -2.00000000
v 1.3165250e-2 0.40000000 -2.00000000
v 0.50000000 0.40000000 -2.00000000
v 0.50000000 0.40000000 2.00000000
v 1.3165250e-2 0.40000000 2.00000000
v -0.19823619 0.34335515 2.00000000
v -0.34335515 0.19823619 2.00000000
v -0.39647238 9.2959130e-17 2.00000000
v -0.34335515 -0.19823619 2.00000000
v -0.19823619 -0.34335515 2.00000000
v 1.3165250e-2 -0.40000000 2.00000000
v 0.50000000 -0.40000000 2.00000000
v 0.50000000 0.40000000 1.90000000
v 1.3165250e-2 0.40000000 1.90000000
v -0.19823619 0.34335515 1.90000000
v -0.34335515 0.19823619 1.90000000
v -0.39647238 9.2959130e-17 1.90000000
v -0.34335515 -0.19823619 1.90000000
v -0.19823619 -0.34335515 1.90000000
v 1.3165250e-2 -0.40000000 1.90000000
v 0.50000000 -0.40000000 1.90000000
v 0.50000000 -0.40000000 -1.90000000
v 1.3165250e-2 -0.40000000 -1.90000000
v -0.19823619 -0.34335515 -1.90000000
v -0.34335515 -0.19823619 -1.90000000
v -0.39647238 -1.4899540e-16 -1.90000000
v -0.34335515 0.19823619 -1.90000000
v -0.19823619 0.34335515 -1.90000000
v 1.3165250e-2 0.40000000 -1.90000000
v 0.50000000 0.40000000 -1.90000000
vt 2.1362223e-2 0.14000000
vt 3.4759683e-2 0.19000000
vt 3.4759683e-2 9.0000000e-2
vt 4.2067747e-2 0.14000000
vt 5.2691192e-2 0.10035276
vt 5.2691192e-2 0.17964724
vt 6.0000000e-2 0.27268487
vt 6.0000000e-2 0.25072092
vt 6.0000000e-2 0.44839651
vt 6.0000000e-2 0.47036046
vt 7.1362223e-2 0.22660254
vt 7.1362223e-2 5.3397460e-2
vt 8.1714985e-2 7.1328969e-2
vt 8.1714985e-2 0.20867103
vt 8.1963954e-2 0.27268487
vt 8.1963954e-2 0.44839651
vt 0.12136222 4.0000000e-2
vt 0.12136222 0.24000000
vt 0.12399527 6.0000000e-2
vt 0.12399527 0.22000000
vt 0.13863778 6.0000000e-2
vt 0.13863778 0.22000000
vt 0.13863778 4.0000000e-2
vt 0.13863778 0.24000000
vt 0.17552032 0.10322558
vt 0.17552032 0.14000000
vt 0.17552032 0.24000000
vt 0.17552032 4.0000000e-2
vt 0.17552032 0.19638276
vt 0.17552032 8.3617243e-2
vt 0.17552032 0.15838721
vt 0.17552032 8.3617243e-2
vt 0.17552032 0.12161279
vt 0.17552032 0.17677442
vt 0.17552032 0.15838721
vt 0.17552032 0.19638276
vt 0.17552032 4.0000000e-2
vt 0.17552032 0.10322558
vt 0.17552032 0.24000000
vt 0.17552032 0.14000000
vt 0.17552032 0.12161279
vt 0.17552032 0.17677442
vt 0.18447968 0.15838721
vt 0.18447968 0.10322558
vt 0.18447968 0.17677442
vt 0.18447968 0.19638276
vt 0.18447968 0.19638276
vt 0.18447968 0.24000000
vt 0.18447968 0.10322558
vt 0.18447968 0.14000000
vt 0.18447968 4.0000000e-2
vt 0.18447968 8.3617243e-2
vt 0.18447968 0.12161279
vt 0.18447968 0.12161279
vt 0.18447968 4.0000000e-2
vt 0.18447968 8.3617243e-2
vt 0.18447968 0.24000000
vt 0.18447968 0.17677442
vt 0.18447968 0.14000000
vt 0.18447968 0.15838721
vt 0.22136222 4.0000000e-2
vt 0.22136222 0.24000000
vt 0.22136222 6.0000000e-2
vt 0.22136222 0.22000000
vt 0.23600473 6.0000000e-2
vt 0.23600473 0.22000000
vt 0.23863778 4.0000000e-2
vt 0.23863778 0.24000000
vt 0.27828501 0.20867103
vt 0.27828501 7.1328969e-2
vt 0.28863778 0.22660254
vt 0.28863778 5.3397460e-2
vt 0.30730881 0.10035276
vt 0.30730881 0.17964724
vt 0.31793225 0.14000000
vt 0.32524032 9.0000000e-2
vt 0.32524032 0.19000000
vt 0.33863778 0.14000000
vt 0.57885769 0.15000000
vt 0.59070797 0.10577417
vt 0.59070797 0.19422583
vt 0.62308352 7.3398610e-2
vt 0.62308352 0.22660139
vt 0.67024648 6.0761333e-2
vt 0.67024648 0.23923867
vt 0.76114231 6.0761333e-2
vt 0.76114231 0.23923867
vt 0.77885769 6.0761333e-2
vt 0.77885769 0.23923867
vt 0.86975352 6.0761333e-2
vt 0.86975352 0.23923867
vt 0.91659421 0.27268487
vt 0.91659421 0.44839651
vt 0.91691648 7.3398610e-2
vt 0.91691648 0.22660139
vt 0.93855816 0.25072092
vt 0.93855816 0.27268487
vt 0.93855816 0.44839651
vt 0.93855816 0.47036046
vt 0.94929203 0.10577417
vt 0.94929203 0.19422583
vt 0.96114231 0.15000000
vn 0.0000000e+0 0.0000000e+0 1.00000000
vn 0.0000000e+0 0.0000000e+0 1.00000000
vn 0.0000000e+0 0.0000000e+0 1.00000000
vn 0.0000000e+0 0.0000000e+0 1.00000000
vn 0.0000000e+0 0.0000000e+0 1.00000000
vn 0.0000000e+0 0.0000000e+0 1.00000000
vn 0.0000000e+0 0.0000000e+0 1.00000000
vn 0.0000000e+0 0.0000000e+0 1.00000000
vn -1.3805066e-30 0.0000000e+0 1.00000000
vn -1.3805066e-30 0.0000000e+0 1.00000000
vn -1.3805066e-30 0.0000000e+0 1.00000000
vn -1.3805066e-30 0.0000000e+0 1.00000000
vn 0.0000000e+0 0.0000000e+0 1.00000000
vn 0.0000000e+0 0.0000000e+0 1.00000000
vn 0.0000000e+0 0.0000000e+0 1.00000000
vn 0.0000000e+0 0.0000000e+0 1.00000000
vn 0.0000000e+0 0.0000000e+0 1.00000000
vn 0.0000000e+0 0.0000000e+0 1.00000000
vn 0.0000000e+0 0.0000000e+0 1.00000000
vn 0.0000000e+0 0.0000000e+0 1.00000000
vn 0.0000000e+0 0.0000000e+0 -1.00000000
vn 0.0000000e+0 0.0000000e+0 -1.00000000
vn 0.0000000e+0 0.0000000e+0 -1.00000000
vn 0.0000000e+0 0.0000000e+0 -1.00000000
vn 0.0000000e+0 0.0000000e+0 -1.00000000
vn 0.0000000e+0 0.0000000e+0 -1.00000000
vn 0.0000000e+0 0.0000000e+0 -1.00000000
vn 0.0000000e+0 0.0000000e+0 -1.00000000
vn 0.0000000e+0 0.0000000e+0 -1.00000000
vn 0.0000000e+0 0.0000000e+0 -1.00000000
vn 0.0000000e+0 0.0000000e+0 -1.00000000
vn 0.0000000e+0 0.0000000e+0 -1.00000000
vn 0.0000000e+0 0.0000000e+0 -1.00000000
vn 0.0000000e+0 0.0000000e+0 -1.00000000
vn 0.0000000e+0 0.0000000e+0 -1.00000000
vn 0.0000000e+0 0.0000000e+0 -1.00000000
vn 0.0000000e+0 0.0000000e+0 -1.00000000
vn 0.0000000e+0 0.0000000e+0 -1.00000000
vn 0.0000000e+0 0.0000000e+0 -1.00000000
vn 0.0000000e+0 0.0000000e+0 -1.00000000
vn 0.0000000e+0 0.0000000e+0 1.00000000
vn 0.0000000e+0 0.0000000e+0 1.00000000
vn 1.00000000 0.0000000e+0 0.0000000e+0
vn 1.00000000 0.0000000e+0 0.0000000e+0
vn 1.00000000 0.0000000e+0 0.0000000e+0
vn 0.0000000e+0 0.0000000e+0 1.00000000
vn 1.00000000 0.0000000e+0 0.0000000e+0
vn 1.00000000 0.0000000e+0 0.0000000e+0
vn 1.00000000 0.0000000e+0 0.0000000e+0
vn 0.0000000e+0 0.0000000e+0 1.00000000
vn 0.0000000e+0 0.0000000e+0 -1.00000000
vn 1.00000000 0.0000000e+0 0.0000000e+0
vn 0.0000000e+0 0.0000000e+0 -1.00000000
vn 1.00000000 0.0000000e+0 0.0000000e+0
vn 0.0000000e+0 0.0000000e+0 -1.00000000
vn 0.0000000e+0 0.0000000e+0 -1.00000000
vn 1.00000000 0.0000000e+0 0.0000000e+0
vn 1.00000000 0.0000000e+0 0.0000000e+0
vn 0.0000000e+0 0.0000000e+0 -1.00000000
vn 1.00000000 0.0000000e+0 0.0000000e+0
vn 0.0000000e+0 1.00000000 0.0000000e+0
vn 0.0000000e+0 0.0000000e+0 -1.00000000
vn 0.0000000e+0 0.0000000e+0 -1.00000000
vn 0.13052619 0.99144486 -3.1978458e-16
vn 0.13052619 0.99144486 -3.1978458e-16
vn 0.0000000e+0 0.0000000e+0 -1.00000000
vn 0.0000000e+0 0.0000000e+0 -1.00000000
vn 0.13052619 0.99144486 -3.1978458e-16
vn 0.13052619 0.99144486 -3.1978458e-16
vn 0.0000000e+0 0.0000000e+0 -1.00000000
vn 0.0000000e+0 0.0000000e+0 -1.00000000
vn 0.50000000 0.86602540 0.0000000e+0
vn 0.50000000 0.86602540 0.0000000e+0
vn 0.0000000e+0 0.0000000e+0 -1.00000000
vn 0.0000000e+0 0.0000000e+0 -1.00000000
vn 0.86602540 0.50000000 0.0000000e+0
vn 0.86602540 0.50000000 0.0000000e+0
vn 0.0000000e+0 0.0000000e+0 -1.00000000
vn 0.0000000e+0 0.0000000e+0 -1.00000000
vn 0.86602540 0.50000000 0.0000000e+0
vn 0.86602540 0.50000000 0.0000000e+0
vn 0.0000000e+0 0.0000000e+0 -1.00000000
vn 0.0000000e+0 0.0000000e+0 -1.00000000
vn 1.00000000 6.3216310e-16 0.0000000e+0
vn 1.00000000 6.3216310e-16 0.0000000e+0
vn 0.0000000e+0 0.0000000e+0 -1.00000000
vn 0.0000000e+0 0.0000000e+0 -1.00000000
vn 0.86602540 -0.50000000 0.0000000e+0
vn 0.86602540 -0.50000000 0.0000000e+0
vn 0.0000000e+0 0.0000000e+0 -1.00000000
vn 0.0000000e+0 0.0000000e+0 -1.00000000
vn 0.86602540 -0.50000000 0.0000000e+0
vn 0.86602540 -0.50000000 0.0000000e+0
vn 0.0000000e+0 0.0000000e+0 -1.00000000
vn 0.0000000e+0 0.0000000e+0 -1.00000000
vn 0.50000000 -0.86602540 0.0000000e+0
vn 0.50000000 -0.86602540 0.0000000e+0
vn 0.0000000e+0 0.0000000e+0 -1.00000000
vn 0.0000000e+0 0.0000000e+0 -1.00000000
vn 0.13052619 -0.99144486 0.0000000e+0
vn 0.13052619 -0.99144486 0.0000000e+0
vn 0.0000000e+0 0.0000000e+0 -1.00000000
vn 0.0000000e+0 0.0000000e+0 -1.00000000
vn 0.13052619 -0.99144486 0.0000000e+0
vn 0.13052619 -0.99144486 0.0000000e+0
vn 0.0000000e+0 0.0000000e+0 -1.00000000
vn 1.00000000 0.0000000e+0 0.0000000e+0
vn 0.0000000e+0 -1.00000000 0.0000000e+0
vn 0.0000000e+0 0.0000000e+0 1.00000000
vn 1.00000000 0.0000000e+0 0.0000000e+0
vn 0.0000000e+0 -1.00000000 0.0000000e+0
vn 0.0000000e+0 0.0000000e+0 1.00000000
vn 0.0000000e+0 0.0000000e+0 1.00000000
vn 0.13052619 -0.99144486 2.8752135e-16
vn 0.13052619 -0.99144486 2.8752135e-16
vn 0.13052619 -0.99144486 2.8752135e-16
vn 0.0000000e+0 0.0000000e+0 1.00000000
vn 0.13052619 -0.99144486 2.8752135e-16
vn 0.0000000e+0 0.0000000e+0 1.00000000
vn 0.0000000e+0 0.0000000e+0 1.00000000
vn 0.0000000e+0 0.0000000e+0 1.00000000
vn 0.50000000 -0.86602540 0.0000000e+0
vn 0.50000000 -0.86602540 0.0000000e+0
vn -1.3524184e-15 0.0000000e+0 1.00000000
vn -1.3524184e-15 0.0000000e+0 1.00000000
vn 0.86602540 -0.50000000 0.0000000e+0
vn 0.86602540 -0.50000000 0.0000000e+0
vn 0.86602540 -0.50000000 0.0000000e+0
vn -1.3524184e-15 0.0000000e+0 1.00000000
vn 0.86602540 -0.50000000 0.0000000e+0
vn -1.3524184e-15 0.0000000e+0 1.00000000
vn -2.7610132e-30 0.0000000e+0 1.00000000
vn -2.7610132e-30 0.0000000e+0 1.00000000
vn 1.00000000 6.3216310e-16 0.0000000e+0
vn 1.00000000 6.3216310e-16 0.0000000e+0
vn 1.3524184e-15 0.0000000e+0 1.00000000
vn 1.3524184e-15 0.0000000e+0 1.00000000
vn 0.86602540 0.50000000 0.0000000e+0
vn 0.86602540 0.50000000 0.0000000e+0
vn 0.86602540 0.50000000 0.0000000e+0
vn 1.3524184e-15 0.0000000e+0 1.00000000
vn 0.86602540 0.50000000 0.0000000e+0
vn 1.3524184e-15 0.0000000e+0 1.00000000
vn 0.0000000e+0 0.0000000e+0 1.00000000
vn 0.0000000e+0 0.0000000e+0 1.00000000
vn 0.50000000 0.86602540 0.0000000e+0
vn 0.50000000 0.86602540 0.0000000e+0
vn 0.0000000e+0 0.0000000e+0 1.00000000
vn 0.0000000e+0 0.0000000e+0 1.00000000
vn 0.13052619 0.99144486 0.0000000e+0
vn 0.13052619 0.99144486 0.0000000e+0
vn 0.13052619 0.99144486 0.0000000e+0
vn 0.0000000e+0 0.0000000e+0 1.00000000
vn 0.13052619 0.99144486 0.0000000e+0
vn 0.0000000e+0 0.0000000e+0 1.00000000
vn 0.0000000e+0 0.0000000e+0 1.00000000
vn 0.0000000e+0 1.00000000 0.0000000e+0
vn 1.00000000 0.0000000e+0 0.0000000e+0
vn 0.0000000e+0 -1.00000000 5.7012314e-16
vn 1.00000000 0.0000000e+0 0.0000000e+0
vn 1.00000000 0.0000000e+0 0.0000000e+0
vn 1.00000000 0.0000000e+0 0.0000000e+0
vn 0.0000000e+0 0.0000000e+0 1.00000000
vn 0.0000000e+0 -1.00000000 5.7012314e-16
vn 0.13052619 -0.99144486 5.7504271e-16
vn 0.13052619 -0.99144486 5.7504271e-16
vn -1.0941102e-16 0.0000000e+0 1.00000000
vn -1.0941102e-16 0.0000000e+0 1.00000000
vn -1.0941102e-16 0.0000000e+0 1.00000000
vn 0.50000000 -0.86602540 0.0000000e+0
vn 0.50000000 -0.86602540 0.0000000e+0
vn 1.2612955e-15 0.0000000e+0 1.00000000
vn 1.2612955e-15 0.0000000e+0 1.00000000
vn 1.2612955e-15 0.0000000e+0 1.00000000
vn 1.2612955e-15 0.0000000e+0 1.00000000
vn 0.50000000 -0.86602540 0.0000000e+0
vn 0.50000000 -0.86602540 0.0000000e+0
vn 0.86602540 -0.50000000 0.0000000e+0
vn 0.86602540 -0.50000000 0.0000000e+0
vn 5.2718360e-15 0.0000000e+0 1.00000000
vn 1.00000000 3.0171421e-16 0.0000000e+0
vn 1.00000000 3.0171421e-16 0.0000000e+0
vn 5.4370391e-16 0.0000000e+0 1.00000000
vn 5.4370391e-16 0.0000000e+0 1.00000000
vn 5.4370391e-16 0.0000000e+0 1.00000000
vn 1.00000000 3.0171421e-16 0.0000000e+0
vn 1.00000000 3.1608155e-16 0.0000000e+0
vn 0.86602540 0.50000000 0.0000000e+0
vn 0.86602540 0.50000000 0.0000000e+0
vn -5.2718360e-15 0.0000000e+0 1.00000000
vn 0.50000000 0.86602540 0.0000000e+0
vn 0.50000000 0.86602540 0.0000000e+0
vn -1.7234189e-15 0.0000000e+0 1.00000000
vn -1.7234189e-15 0.0000000e+0 1.00000000
vn -1.7234189e-15 0.0000000e+0 1.00000000
vn 0.50000000 0.86602540 0.0000000e+0
vn 0.50000000 0.86602540 0.0000000e+0
vn 0.13052619 0.99144486 0.0000000e+0
vn 0.13052619 0.99144486 0.0000000e+0
vn -6.1925519e-16 0.0000000e+0 1.00000000
vn -6.1925519e-16 0.0000000e+0 1.00000000
vn -6.1925519e-16 0.0000000e+0 1.00000000
vn 0.0000000e+0 1.00000000 0.0000000e+0
vn 1.00000000 0.0000000e+0 0.0000000e+0
vn 1.00000000 0.0000000e+0 0.0000000e+0
vn 0.0000000e+0 0.0000000e+0 1.00000000
vn 0.0000000e+0 0.0000000e+0 1.00000000
vn 0.0000000e+0 1.00000000 0.0000000e+0
vn 1.00000000 0.0000000e+0 0.0000000e+0
vn 1.00000000 0.0000000e+0 0.0000000e+0
vn 0.0000000e+0 1.00000000 0.0000000e+0
vn 1.00000000 0.0000000e+0 0.0000000e+0
vn 1.00000000 0.0000000e+0 0.0000000e+0
vn 0.0000000e+0 0.0000000e+0 -1.00000000
vn 0.0000000e+0 0.0000000e+0 -1.00000000
vn 0.0000000e+0 1.00000000 0.0000000e+0
vn 1.00000000 0.0000000e+0 0.0000000e+0
vn 1.00000000 0.0000000e+0 0.0000000e+0
vn 0.13052619 0.99144486 -6.3956916e-16
vn 0.13052619 0.99144486 -6.3956916e-16
vn -6.1925519e-16 0.0000000e+0 -1.00000000
vn -6.1925519e-16 0.0000000e+0 -1.00000000
vn -6.1925519e-16 0.0000000e+0 -1.00000000
vn 0.50000000 0.86602540 -3.2823305e-16
vn 0.50000000 0.86602540 -3.2823305e-16
vn 1.2140934e-15 0.0000000e+0 -1.00000000
vn 1.2140934e-15 0.0000000e+0 -1.00000000
vn 1.2140934e-15 0.0000000e+0 -1.00000000
vn 1.2140934e-15 0.0000000e+0 -1.00000000
vn 0.50000000 0.86602540 -3.2823305e-16
vn 0.50000000 0.86602540 -3.2823305e-16
vn 0.86602540 0.50000000 0.0000000e+0
vn 0.86602540 0.50000000 0.0000000e+0
vn 5.2718360e-15 0.0000000e+0 -1.00000000
vn 1.00000000 3.0171421e-16 0.0000000e+0
vn 1.00000000 3.0171421e-16 0.0000000e+0
vn 2.6359180e-15 0.0000000e+0 -1.00000000
vn 2.6359180e-15 0.0000000e+0 -1.00000000
vn 1.00000000 3.0171421e-16 0.0000000e+0
vn 1.00000000 3.1608155e-16 0.0000000e+0
vn 0.86602540 -0.50000000 0.0000000e+0
vn 0.86602540 -0.50000000 0.0000000e+0
vn 5.5703502e-16 0.0000000e+0 -1.00000000
vn 5.5703502e-16 0.0000000e+0 -1.00000000
vn 0.50000000 -0.86602540 0.0000000e+0
vn 0.50000000 -0.86602540 0.0000000e+0
vn -2.4789851e-16 0.0000000e+0 -1.00000000
vn -2.4789851e-16 0.0000000e+0 -1.00000000
vn -2.4789851e-16 0.0000000e+0 -1.00000000
vn 0.50000000 -0.86602540 0.0000000e+0
vn 0.50000000 -0.86602540 0.0000000e+0
vn 0.13052619 -0.99144486 0.0000000e+0
vn 0.13052619 -0.99144486 0.0000000e+0
vn -1.0941102e-16 0.0000000e+0 -1.00000000
vn -1.0941102e-16 0.0000000e+0 -1.00000000
vn -1.0941102e-16 0.0000000e+0 -1.00000000
vn 0.0000000e+0 -1.00000000 0.0000000e+0
vn 1.00000000 0.0000000e+0 0.0000000e+0
vn 1.00000000 0.0000000e+0 0.0000000e+0
vn 1.00000000 0.0000000e+0 0.0000000e+0
vn 1.00000000 0.0000000e+0 0.0000000e+0
vn 0.0000000e+0 -1.00000000 0.0000000e+0
vn 1.00000000 0.0000000e+0 0.0000000e+0
vn 0.0000000e+0 0.0000000e+0 -1.00000000
g Cylinder1_default
usemtl default
s 1
f 56/103/216 63/106/255 55/107/211
f 57/101/223 62/102/250 56/103/217
f 58/99/228 59/97/231 57/101/220
f 59/97/233 61/100/242 57/101/221
f 60/98/238 61/100/241 59/97/232
f 62/102/249 57/101/222 61/100/243
f 63/106/254 56/103/215 62/102/248
f 65/108/270 71/109/303 64/104/262
f 66/112/276 70/113/296 65/108/271
f 67/118/282 68/120/285 66/112/274
f 69/119/291 66/112/275 68/120/286
f 70/113/297 66/112/277 69/119/292
f 71/109/302 65/108/269 70/113/295
f 72/105/312 64/104/263 71/109/304
s 2
f 33/26/91 63/33/257 54/25/206
f 34/28/97 72/111/308 36/117/105
f 35/114/102 64/110/265 33/26/92
f 36/117/106 72/111/309 45/116/155
f 37/115/108 64/110/260 35/114/100
f 46/27/158 55/34/208 34/28/95
f 63/33/258 33/26/93 64/110/266
f 63/33/253 72/111/311 55/34/210
f 72/111/307 34/28/96 55/34/209
f 72/111/306 63/33/252 64/110/261
s 3
f 26/85/69 38/83/114 35/41/101
f 27/90/73 38/83/115 26/85/70
f 28/94/75 40/91/126 27/90/74
f 29/96/79 40/91/127 28/94/76
f 30/95/81 42/92/138 29/96/80
f 31/89/85 42/92/139 30/95/82
f 32/86/87 44/84/150 31/89/86
f 36/42/104 44/84/151 32/86/88
f 37/39/107 35/41/99 38/83/110
f 38/83/111 27/90/71 39/88/118
f 39/88/119 27/90/72 40/91/122
f 40/91/123 29/96/77 41/93/130
f 41/93/131 29/96/78 42/92/134
f 42/92/135 31/89/83 43/87/142
f 43/87/143 31/89/84 44/84/146
f 44/84/147 36/42/103 45/40/154
f 47/47/166 55/66/212 46/45/159
f 48/52/171 57/63/225 47/47/164
f 49/49/178 57/63/224 48/52/170
f 50/44/183 59/68/235 49/49/176
f 51/51/190 59/68/234 50/44/182
f 52/43/195 61/62/245 51/51/188
f 53/48/202 61/62/244 52/43/194
f 54/46/205 63/69/256 53/48/200
f 55/66/207 47/47/162 56/64/213
f 56/64/214 47/47/163 57/63/218
f 57/63/219 49/49/174 58/61/226
f 58/61/227 49/49/175 59/68/229
f 59/68/230 51/51/186 60/72/236
f 60/72/237 51/51/187 61/62/239
f 61/62/240 53/48/198 62/70/246
f 62/70/247 53/48/199 63/69/251
s 4
f 19/35/50 53/37/203 20/30/54
f 20/30/53 51/23/189 21/21/55
f 21/21/56 51/23/191 22/19/60
f 22/19/59 49/24/177 23/20/61
f 23/20/62 49/24/179 24/29/66
f 24/29/65 47/38/165 25/36/67
f 25/36/68 47/38/167 34/80/98
f 33/79/90 53/37/201 19/35/49
f 38/74/117 64/55/264 37/73/109
f 39/67/121 66/56/279 38/74/116
f 40/71/129 66/56/278 39/67/120
f 41/77/133 68/58/288 40/71/128
f 42/78/141 68/58/287 41/77/132
f 43/76/145 70/60/299 42/78/140
f 44/65/153 70/60/298 43/76/144
f 45/75/156 72/57/310 44/65/152
f 46/82/157 34/80/94 47/38/160
f 47/38/161 24/29/63 48/32/168
f 48/32/169 24/29/64 49/24/172
f 49/24/173 22/19/57 50/22/180
f 50/22/181 22/19/58 51/23/184
f 51/23/185 20/30/51 52/31/192
f 52/31/193 20/30/52 53/37/196
f 53/37/197 33/79/89 54/81/204
f 64/55/259 38/74/112 65/50/267
f 65/50/268 38/74/113 66/56/272
f 66/56/273 40/71/124 67/59/280
f 67/59/281 40/71/125 68/58/283
f 68/58/284 42/78/136 69/53/289
f 69/53/290 42/78/137 70/60/293
f 70/60/294 44/65/148 71/54/300
f 71/54/301 44/65/149 72/57/305
