# Exported from Wings 3D 1.5.4
mtllib ghost_wall_16b.mtl
o Cube1_sep3
#21 vertices, 19 faces
v -0.50000000 -0.50000000 -0.50000000
v -0.50000000 -0.50000000 0.50000000
v -0.50000000 15.50000000 -0.50000000
v -0.50000000 15.50000000 0.50000000
v 15.50000000 -0.50000000 -0.50000000
v 15.50000000 -0.50000000 0.50000000
v 15.50000000 15.50000000 -0.50000000
v 15.50000000 15.50000000 0.50000000
v 0.30000000 6.9230769e-2 0.0000000e+0
v 1.8369702e-17 6.9230769e-2 0.30000000
v -0.30000000 6.9230769e-2 0.0000000e+0
v -5.5109106e-17 6.9230769e-2 -0.30000000
v 0.15000000 -0.41076923 0.0000000e+0
v 9.1848510e-18 -0.41076923 0.15000000
v -0.15000000 -0.41076923 0.0000000e+0
v -2.7554553e-17 -0.41076923 -0.15000000
v 0.0000000e+0 0.38923077 0.0000000e+0
v 0.15000000 6.9230769e-2 0.0000000e+0
v 9.1848510e-18 6.9230769e-2 0.15000000
v -0.15000000 6.9230769e-2 0.0000000e+0
v -2.7554553e-17 6.9230769e-2 -0.15000000
vt -2.7755576e-16 -1.00000000
vt 0.0000000e+0 0.36545651
vt 0.0000000e+0 0.87500000
vt 0.0000000e+0 0.87500000
vt 0.0000000e+0 1.00000000
vt 0.0000000e+0 1.00000000
vt 1.1102230e-16 1.00000000
vt 1.6653345e-16 1.00000000
vt 2.2204460e-16 -1.00000000
vt 3.3306691e-16 -1.00000000
vt 4.4408921e-16 -1.00000000
vt 4.5728776e-3 0.86432648
vt 2.6805997e-2 0.78055730
vt 0.12500000 -1.00000000
vt 0.12500000 -1.00000000
vt 0.12500000 1.00000000
vt 0.12500000 1.00000000
vt 0.16226248 0.76356587
vt 0.16822932 1.5221044e-2
vt 0.16990622 0.79971126
vt 0.18345036 0.35360983
vt 0.21872606 0.98685474
vt 0.27238622 0.81334007
vt 0.28256674 0.78070295
vt 0.36099065 0.85866399
vt 0.38695695 0.83299535
vt 0.42842376 0.38960984
vt 0.46058350 1.00000000
vt 0.48682031 0.91911768
vt 0.50661810 0.0000000e+0
vt 0.58505379 0.49559786
vt 0.72559015 0.60112021
vt 2.00000000 1.00000000
vt 2.00000000 -1.00000000
vt 2.00000000 -1.00000000
vt 2.00000000 0.87500000
vt 2.00000000 0.87500000
vt 2.00000000 1.00000000
vt 2.00000000 1.00000000
vn 0.79645601 -0.60469648 2.2504898e-16
vn 0.0000000e+0 -0.60469648 0.79645601
vn -0.79645601 -0.60469648 3.0006530e-16
vn -7.5016326e-17 -0.60469648 -0.79645601
vn 0.81649658 -0.57735027 -6.4098756e-17
vn 0.0000000e+0 -0.57735027 0.81649658
vn -0.81649658 -0.57735027 0.0000000e+0
vn -6.4098756e-17 -0.57735027 -0.81649658
vn -5.0233417e-17 1.00000000 3.5163392e-16
vn 0.57735027 -0.81649658 -4.5324665e-17
vn 0.0000000e+0 -0.81649658 0.57735027
vn -0.57735027 -0.81649658 0.0000000e+0
vn -4.5324665e-17 -0.81649658 -0.57735027
vn 2.2204460e-16 -1.00000000 0.0000000e+0
vn 0.0000000e+0 0.0000000e+0 -1.00000000
vn -1.00000000 -2.2204460e-16 0.0000000e+0
vn 2.2204460e-16 -1.00000000 0.0000000e+0
vn 0.0000000e+0 0.0000000e+0 1.00000000
vn -1.00000000 -2.2204460e-16 0.0000000e+0
vn -2.2204460e-16 1.00000000 0.0000000e+0
vn 0.0000000e+0 0.0000000e+0 -1.00000000
vn -1.00000000 -2.2204460e-16 0.0000000e+0
vn -2.2204460e-16 1.00000000 0.0000000e+0
vn 0.0000000e+0 0.0000000e+0 1.00000000
vn -1.00000000 -2.2204460e-16 0.0000000e+0
vn 2.2204460e-16 -1.00000000 0.0000000e+0
vn 0.0000000e+0 0.0000000e+0 -1.00000000
vn 1.00000000 2.2204460e-16 0.0000000e+0
vn 2.2204460e-16 -1.00000000 0.0000000e+0
vn 0.0000000e+0 0.0000000e+0 1.00000000
vn 1.00000000 2.2204460e-16 0.0000000e+0
vn -2.2204460e-16 1.00000000 0.0000000e+0
vn 0.0000000e+0 0.0000000e+0 -1.00000000
vn 1.00000000 2.2204460e-16 0.0000000e+0
vn -2.2204460e-16 1.00000000 0.0000000e+0
vn 0.0000000e+0 0.0000000e+0 1.00000000
vn 1.00000000 2.2204460e-16 0.0000000e+0
g Cube1_sep3
usemtl Cube1_auv
s 1
f 2/14/19 4/17/25 3/8/22 1/1/16
f 5/15/28 7/16/34 8/6/37 6/9/31
s 2
f 2/10/18 6/35/30 8/33/36 4/7/24
f 3/39/21 7/6/33 5/11/27 1/34/15
s 3
f 1/39/14 5/6/26 6/3/29 2/36/17
f 4/4/23 8/37/35 7/38/32 3/5/20
usemtl Cylinder4_auv
s 1
f 9/20/1 17/22/9 10/12/2
f 9/20/1 18/18/10 21/24/13 12/23/4
f 10/28/2 17/22/9 11/25/3
f 10/12/2 19/13/11 18/18/10 9/20/1
f 11/25/3 17/22/9 12/23/4
f 11/25/3 20/26/12 19/29/11 10/28/2
f 12/23/4 17/22/9 9/20/1
f 12/23/4 21/24/13 20/26/12 11/25/3
f 13/21/5 18/18/10 19/13/11 14/2/6
f 14/19/6 15/30/7 16/27/8 13/21/5
f 14/32/6 19/29/11 20/26/12 15/31/7
f 15/31/7 20/26/12 21/24/13 16/27/8
f 16/27/8 21/24/13 18/18/10 13/21/5
