# Exported from Wings 3D 2.1.7
mtllib rope_y.mtl
o Cube3
#16 vertices, 10 faces
v -0.13005282 -0.16655844 4.6640477e-2
v 999.83281552 998.70533280 1000.00950882
v -0.20612125 5.8981436e-2 -2.9427949e-2
v 999.75674709 998.93087267 999.93344039
v 4.6640477e-2 -0.16655844 -0.13005282
v 1000.00950882 998.70533280 999.83281552
v -2.9427949e-2 5.8981436e-2 -0.20612125
v 999.93344039 998.93087267 999.75674709
v -0.50000000 -0.50000000 -0.50000000
v -0.50000000 -0.50000000 0.50000000
v -0.50000000 0.50000000 -0.50000000
v -0.50000000 0.50000000 0.50000000
v 0.50000000 -0.50000000 -0.50000000
v 0.50000000 -0.50000000 0.50000000
v 0.50000000 0.50000000 -0.50000000
v 0.50000000 0.50000000 0.50000000
vt 1.6311714e-2 0.85441171
vt 1.6311714e-2 0.89691171
vt 3.7561714e-2 0.87566171
vt 5.8811714e-2 0.93941171
vt 5.8811714e-2 0.81191171
vt 8.0061714e-2 0.83316171
vt 8.0061714e-2 0.91816171
vt 0.10131171 0.81191171
vt 0.10131171 0.93941171
vt 0.12256171 0.87566171
vt 0.14381171 0.85441171
vt 0.14381171 0.89691171
vt 0.39479339 0.67371492
vt 0.39479339 0.81621492
vt 0.53729339 0.67371492
vt 0.53729339 0.81621492
vt 0.67979339 0.67371492
vt 0.67979339 0.81621492
vt 0.82229339 0.53121492
vt 0.82229339 0.67371492
vt 0.82229339 0.81621492
vt 0.82229339 0.95871492
vt 0.96479339 0.53121492
vt 0.96479339 0.81621492
vt 0.96479339 0.95871492
vt 0.96479339 0.67371492
vn -0.21153495 -0.57756024 0.78846505
vn -0.21153495 -0.57756024 0.78846505
vn -0.78846505 0.57756024 0.21153495
vn -0.78846505 0.57756024 0.21153495
vn 0.78846505 -0.57756024 -0.21153495
vn 0.78846505 -0.57756024 -0.21153495
vn 0.21153495 0.57756024 -0.78846505
vn 0.21153495 0.57756024 -0.78846505
vn -0.57735027 -0.57735027 -0.57735027
vn -0.57735027 -0.57735027 0.57735027
vn -0.57735027 0.57735027 -0.57735027
vn -0.57735027 0.57735027 0.57735027
vn 0.57735027 -0.57735027 -0.57735027
vn 0.57735027 -0.57735027 0.57735027
vn 0.57735027 0.57735027 -0.57735027
vn 0.57735027 0.57735027 0.57735027
g Cube3
usemtl Cube3_auv
s 1
f 1/1/1 5/5/5 6/6/6 2/3/2
f 2/3/2 4/7/4 3/4/3 1/2/1
f 4/7/4 8/10/8 7/12/7 3/9/3
f 5/8/5 7/11/7 8/10/8 6/6/6
usemtl Cube4_auv
s 1
f 9/17/9 13/20/13 14/21/14 10/18/10
f 10/18/10 12/16/12 11/15/11 9/17/9
f 10/22/10 14/21/14 16/24/16 12/25/12
f 11/23/11 15/26/15 13/20/13 9/19/9
f 12/16/12 16/14/16 15/13/15 11/15/11
f 13/20/13 15/26/15 16/24/16 14/21/14
