# Blender v2.78 (sub 0) OBJ File: 'TieRod2x1.blend'
# www.blender.org
mtllib TieRod3x2.mtl
o Circle
v -1.000000 0.637629 -0.575903
v -1.097318 0.597318 -0.575903
v -1.137629 0.500000 -0.575903
v -1.097318 0.402682 -0.575903
v -1.000000 0.362371 -0.575903
v -0.902682 0.402682 -0.575903
v -0.862371 0.500000 -0.575903
v -0.902682 0.597318 -0.575903
v -0.823223 0.676777 -0.300000
v -0.750000 0.500000 -0.300000
v -0.823223 0.323223 -0.300000
v -1.000000 0.250000 -0.300000
v -1.176777 0.323223 -0.300000
v -1.250000 0.500000 -0.300000
v -1.000000 0.750000 -0.300000
v -1.176777 0.676777 -0.300000
v -1.000000 0.656654 -0.261337
v -0.889229 0.610771 -0.261337
v -0.843346 0.500000 -0.261337
v -0.889229 0.389229 -0.261337
v -1.000000 0.343346 -0.261337
v -1.110771 0.389229 -0.261337
v -1.156654 0.500000 -0.261337
v -1.110771 0.610771 -0.261337
v -0.973586 0.556644 -0.400000
v -0.981323 0.540053 -0.355806
v -1.000000 0.500000 -0.337500
v -1.018677 0.459946 -0.355806
v -1.026414 0.443356 -0.400000
v -1.018677 0.459946 -0.444194
v -1.000000 0.500000 -0.462500
v -0.981323 0.540053 -0.444194
v 1.018677 -0.459946 -0.355806
v 1.026414 -0.443356 -0.400000
v 1.000000 -0.500000 -0.337500
v 0.981323 -0.540053 -0.355806
v 0.973586 -0.556644 -0.400000
v 0.981323 -0.540053 -0.444194
v 1.000000 -0.500000 -0.462500
v 1.018677 -0.459946 -0.444194
v 1.000000 -0.600000 -0.500000
v 1.086603 -0.550000 -0.500000
v 0.913397 -0.550000 -0.700000
v 0.913397 -0.450000 -0.700000
v 1.000000 -0.400000 -0.700000
v 1.086602 -0.450000 -0.700000
v 1.086603 -0.550000 -0.700000
v 1.000000 -0.600000 -0.700000
v 0.823223 -0.676777 -0.500000
v 0.750000 -0.500000 -0.500000
v 0.823223 -0.323223 -0.500000
v 1.000000 -0.250000 -0.500000
v 1.176777 -0.323223 -0.500000
v 1.250000 -0.500000 -0.500000
v 1.000000 -0.750000 -0.500000
v 1.176777 -0.676777 -0.500000
v 1.110771 -0.610771 -0.261337
v 1.156654 -0.500000 -0.261337
v 1.110771 -0.389229 -0.261337
v 1.000000 -0.343346 -0.261337
v 0.889229 -0.389229 -0.261337
v 0.843346 -0.500000 -0.261337
v 0.889229 -0.610771 -0.261337
v 1.000000 -0.656654 -0.261337
v -1.176777 0.676777 -0.500000
v -1.000000 0.750000 -0.500000
v -1.250000 0.500000 -0.500000
v -1.176777 0.323223 -0.500000
v -1.000000 0.250000 -0.500000
v -0.823223 0.323223 -0.500000
v -0.750000 0.500000 -0.500000
v -0.823223 0.676777 -0.500000
v 1.176777 -0.676777 -0.300000
v 1.000000 -0.750000 -0.300000
v 1.250000 -0.500000 -0.300000
v 1.176777 -0.323223 -0.300000
v 1.000000 -0.250000 -0.300000
v 0.823223 -0.323223 -0.300000
v 0.750000 -0.500000 -0.300000
v 0.823223 -0.676777 -0.300000
v 0.902682 -0.597318 -0.575903
v 0.862371 -0.500000 -0.575903
v 0.902682 -0.402682 -0.575903
v 1.000000 -0.362372 -0.575903
v 1.097318 -0.402682 -0.575903
v 1.137629 -0.500000 -0.575903
v 1.097318 -0.597318 -0.575903
v 1.000000 -0.637629 -0.575903
v -1.000000 0.600000 -0.700000
v -1.086603 0.550000 -0.700000
v -1.086602 0.450000 -0.700000
v -1.000000 0.400000 -0.700000
v -0.913397 0.450000 -0.700000
v -0.913397 0.550000 -0.700000
v -1.086603 0.550000 -0.500000
v -1.000000 0.600000 -0.500000
v -1.086602 0.450000 -0.500000
v -1.000000 0.400000 -0.500000
v -0.913397 0.450000 -0.500000
v -0.913397 0.550000 -0.500000
v 1.086602 -0.450000 -0.500000
v 1.000000 -0.400000 -0.500000
v 0.913397 -0.450000 -0.500000
v 0.913397 -0.550000 -0.500000
v -1.000000 0.706703 -0.300000
v -0.853839 0.646161 -0.300000
v -0.793297 0.500000 -0.300000
v -0.853839 0.353839 -0.300000
v -1.000000 0.293297 -0.300000
v -1.146161 0.353839 -0.300000
v -1.206703 0.500000 -0.300000
v -1.146161 0.646161 -0.300000
v 0.853839 -0.646161 -0.300000
v 0.793297 -0.500000 -0.300000
v 1.146161 -0.353839 -0.300000
v 1.206703 -0.500000 -0.300000
v 1.146161 -0.646161 -0.300000
v 1.000000 -0.706703 -0.300000
v 0.853839 -0.353839 -0.300000
v 1.000000 -0.293297 -0.300000
vt 0.4947 0.8123
vt 0.4781 0.8524
vt 0.4690 0.8433
vt 0.4818 0.8123
vt 0.2255 0.8474
vt 0.2255 0.8456
vt 0.2268 0.8443
vt 0.2286 0.8443
vt 0.2298 0.8456
vt 0.2298 0.8474
vt 0.2286 0.8487
vt 0.2268 0.8487
vt 0.3977 0.8524
vt 0.3811 0.8123
vt 0.3939 0.8123
vt 0.4068 0.8433
vt 0.3977 0.7721
vt 0.4379 0.7554
vt 0.4379 0.7683
vt 0.4068 0.7812
vt 0.4781 0.7721
vt 0.4690 0.7812
vt 0.4379 0.8691
vt 0.4379 0.8562
vt 0.1211 0.8079
vt 0.1211 0.8087
vt 0.1205 0.8092
vt 0.1198 0.8092
vt 0.1193 0.8087
vt 0.1193 0.8079
vt 0.1198 0.8074
vt 0.1205 0.8073
vt 0.1180 0.8074
vt 0.1187 0.8073
vt 0.1193 0.8079
vt 0.1193 0.8087
vt 0.1187 0.8092
vt 0.1180 0.8092
vt 0.1174 0.8087
vt 0.1174 0.8079
vt 0.1174 0.7348
vt 0.1185 0.7348
vt 0.1185 0.7380
vt 0.1174 0.7380
vt 0.4949 0.8123
vt 0.4783 0.8524
vt 0.4692 0.8433
vt 0.4820 0.8123
vt 0.4381 0.8691
vt 0.3979 0.8524
vt 0.4070 0.8433
vt 0.4381 0.8562
vt 0.4783 0.7721
vt 0.4692 0.7812
vt 0.3979 0.7721
vt 0.4381 0.7554
vt 0.4381 0.7683
vt 0.4070 0.7812
vt 0.3813 0.8123
vt 0.3941 0.8123
vt 0.2225 0.8400
vt 0.2212 0.8413
vt 0.2194 0.8413
vt 0.2182 0.8400
vt 0.2182 0.8382
vt 0.2194 0.8369
vt 0.2212 0.8369
vt 0.2225 0.8382
vt 0.1169 0.7402
vt 0.1158 0.7402
vt 0.1158 0.7370
vt 0.1169 0.7370
vt 0.1143 0.7402
vt 0.1143 0.7370
vt 0.1198 0.7278
vt 0.1198 0.7294
vt 0.1185 0.7302
vt 0.1171 0.7294
vt 0.1171 0.7278
vt 0.1185 0.7270
vt 0.1092 0.7398
vt 0.1076 0.7398
vt 0.1076 0.7366
vt 0.1092 0.7366
vt 0.1050 0.7390
vt 0.1036 0.7398
vt 0.1022 0.7390
vt 0.1022 0.7374
vt 0.1036 0.7366
vt 0.1050 0.7374
vt 0.0520 0.8531
vt 0.0532 0.8543
vt 0.0532 0.8560
vt 0.0520 0.8572
vt 0.0503 0.8572
vt 0.0492 0.8560
vt 0.0492 0.8543
vt 0.0503 0.8531
vt 0.0418 0.8617
vt 0.0430 0.8605
vt 0.0447 0.8605
vt 0.0459 0.8617
vt 0.0459 0.8634
vt 0.0447 0.8646
vt 0.0430 0.8646
vt 0.0418 0.8634
vt 0.1198 0.7270
vt 0.1214 0.7270
vt 0.1214 0.7302
vt 0.1198 0.7302
vt 0.1201 0.7348
vt 0.1201 0.7380
vt 0.1022 0.7374
vt 0.1022 0.7390
vt 0.1009 0.7398
vt 0.0995 0.7390
vt 0.0995 0.7374
vt 0.1009 0.7366
vt 0.0995 0.7390
vt 0.0981 0.7398
vt 0.0967 0.7390
vt 0.0967 0.7374
vt 0.0981 0.7366
vt 0.0995 0.7374
vt 0.1201 0.7348
vt 0.1190 0.7348
vt 0.1190 0.7316
vt 0.1201 0.7316
vt 0.1061 0.7366
vt 0.1076 0.7366
vt 0.1076 0.7398
vt 0.1061 0.7398
vt 0.1112 0.7376
vt 0.1128 0.7376
vt 0.1128 0.7409
vt 0.1112 0.7409
vt 0.1112 0.7409
vt 0.1097 0.7409
vt 0.1097 0.7376
vt 0.1112 0.7376
vt 0.1050 0.7366
vt 0.1050 0.7398
vt 0.1174 0.7348
vt 0.1174 0.7316
vt 0.1095 0.8030
vt 0.1095 0.8060
vt 0.1063 0.8060
vt 0.1063 0.8030
vt 0.1171 0.7886
vt 0.1171 0.7856
vt 0.1203 0.7856
vt 0.1203 0.7886
vt 0.0999 0.8030
vt 0.0999 0.8060
vt 0.0967 0.8060
vt 0.0967 0.8030
vt 0.1171 0.7940
vt 0.1171 0.7910
vt 0.1203 0.7910
vt 0.1203 0.7940
vt 0.1171 0.7964
vt 0.1203 0.7964
vt 0.1095 0.8004
vt 0.1063 0.8004
vt 0.1171 0.7910
vt 0.1203 0.7910
vt 0.0999 0.8004
vt 0.0967 0.8004
vt 0.1128 0.8016
vt 0.1128 0.7856
vt 0.1136 0.7856
vt 0.1136 0.8016
vt 0.1157 0.7857
vt 0.1157 0.8009
vt 0.1150 0.8008
vt 0.1150 0.7856
vt 0.1114 0.8016
vt 0.1114 0.7856
vt 0.1121 0.7856
vt 0.1121 0.8016
vt 0.1157 0.8009
vt 0.1157 0.7857
vt 0.1164 0.7856
vt 0.1164 0.8008
vt 0.1171 0.7857
vt 0.1171 0.8009
vt 0.1143 0.7856
vt 0.1143 0.8016
vt 0.1143 0.8009
vt 0.1143 0.7857
vt 0.1128 0.7856
vt 0.1128 0.8016
vt 0.1031 0.8004
vt 0.1031 0.8030
vt 0.0999 0.8030
vt 0.0999 0.8004
vt 0.1143 0.8040
vt 0.1143 0.8009
vt 0.1174 0.8009
vt 0.1174 0.8040
vt 0.1063 0.8004
vt 0.1063 0.8030
vt 0.1031 0.8030
vt 0.1031 0.8004
vt 0.1128 0.8040
vt 0.1128 0.8070
vt 0.1097 0.8070
vt 0.1097 0.8040
vt 0.1031 0.8060
vt 0.0999 0.8060
vt 0.1128 0.8016
vt 0.1097 0.8016
vt 0.1063 0.8060
vt 0.1031 0.8060
vt 0.1143 0.8063
vt 0.1174 0.8063
vt 0.0527 0.8514
vt 0.0549 0.8536
vt 0.0402 0.8610
vt 0.0423 0.8589
vt 0.0402 0.8641
vt 0.0423 0.8663
vt 0.0454 0.8663
vt 0.0475 0.8641
vt 0.0475 0.8610
vt 0.0454 0.8589
vt 0.0549 0.8567
vt 0.0527 0.8589
vt 0.0497 0.8589
vt 0.0475 0.8567
vt 0.0475 0.8536
vt 0.0497 0.8514
vt 0.2289 0.8494
vt 0.2265 0.8494
vt 0.2305 0.8453
vt 0.2305 0.8477
vt 0.2289 0.8436
vt 0.2265 0.8436
vt 0.2248 0.8453
vt 0.2248 0.8477
vt 0.2192 0.8362
vt 0.2215 0.8362
vt 0.2215 0.8419
vt 0.2192 0.8419
vt 0.2232 0.8379
vt 0.2232 0.8403
vt 0.2175 0.8379
vt 0.2175 0.8403
vn -0.0000 -0.0000 1.0000
vn -0.9063 0.4226 -0.0000
vn 0.9063 -0.4226 0.0000
vn -0.5000 -0.8660 0.0000
vn 0.5000 0.8660 0.0000
vn -0.5000 0.8660 0.0000
vn 0.0000 0.0000 -1.0000
vn 1.0000 0.0000 0.0000
vn -1.0000 0.0000 0.0000
vn 0.5000 -0.8660 0.0000
vn 0.7071 0.7071 0.0000
vn 0.0000 -1.0000 0.0000
vn 0.7071 -0.7071 0.0000
vn -0.7071 -0.7071 0.0000
vn 0.0000 1.0000 0.0000
vn -0.7071 0.7071 0.0000
vn 0.3178 0.6355 -0.7037
vn 0.3148 0.6296 -0.7103
vn -0.0030 -0.0060 -1.0000
vn 0.0030 0.0060 -1.0000
vn -0.3148 -0.6296 -0.7103
vn -0.3178 -0.6355 -0.7037
vn -0.4472 -0.8944 0.0000
vn -0.3148 -0.6296 0.7103
vn -0.3178 -0.6355 0.7037
vn -0.0030 -0.0060 1.0000
vn 0.0030 0.0060 1.0000
vn 0.3178 0.6355 0.7037
vn 0.3148 0.6296 0.7103
vn 0.4472 0.8944 0.0000
vn -0.0000 -0.5597 -0.8287
vn 0.3958 -0.3958 -0.8287
vn -0.0000 0.5597 -0.8287
vn -0.3958 0.3958 -0.8287
vn -0.5597 0.0000 -0.8287
vn -0.3958 -0.3958 -0.8287
vn 0.5597 0.0000 -0.8287
vn 0.3958 0.3958 -0.8287
vn 0.0000 0.6113 0.7914
vn 0.4323 0.4323 0.7914
vn 0.6113 -0.0000 0.7914
vn 0.4323 -0.4323 0.7914
vn 0.0000 -0.6113 0.7914
vn -0.4323 -0.4323 0.7914
vn -0.6113 0.0000 0.7914
vn -0.4323 0.4323 0.7914
usemtl None
s off
f 10/1/1 9/2/1 106/3/1 107/4/1
f 24/5/1 23/6/1 22/7/1 21/8/1 20/9/1 19/10/1 18/11/1 17/12/1
f 16/13/1 14/14/1 111/15/1 112/16/1
f 13/17/1 12/18/1 109/19/1 110/20/1
f 11/21/1 10/1/1 107/4/1 108/22/1
f 15/23/1 16/13/1 112/16/1 105/24/1
f 14/14/1 13/17/1 110/20/1 111/15/1
f 12/18/1 11/21/1 108/22/1 109/19/1
f 9/2/1 15/23/1 105/24/1 106/3/1
f 26/25/2 25/26/2 32/27/2 31/28/2 30/29/2 29/30/2 28/31/2 27/32/2
f 33/33/3 35/34/3 36/35/3 37/36/3 38/37/3 39/38/3 40/39/3 34/40/3
f 43/41/4 48/42/4 41/43/4 104/44/4
f 75/45/1 76/46/1 115/47/1 116/48/1
f 77/49/1 78/50/1 119/51/1 120/52/1
f 73/53/1 75/45/1 116/48/1 117/54/1
f 80/55/1 74/56/1 118/57/1 113/58/1
f 78/50/1 79/59/1 114/60/1 119/51/1
f 57/61/1 58/62/1 59/63/1 60/64/1 61/65/1 62/66/1 63/67/1 64/68/1
f 74/56/1 73/53/1 117/54/1 118/57/1
f 76/46/1 77/49/1 120/52/1 115/47/1
f 46/69/5 45/70/5 102/71/5 101/72/5
f 45/70/6 44/73/6 103/74/6 102/71/6
f 47/75/7 48/76/7 43/77/7 44/78/7 45/79/7 46/80/7
f 47/81/8 46/82/8 101/83/8 42/84/8
f 79/59/1 80/55/1 113/58/1 114/60/1
f 42/85/1 101/86/1 102/87/1 103/88/1 104/89/1 41/90/1
f 87/91/7 88/92/7 81/93/7 82/94/7 83/95/7 84/96/7 85/97/7 86/98/7
f 2/99/7 1/100/7 8/101/7 7/102/7 6/103/7 5/104/7 4/105/7 3/106/7
f 44/107/9 43/108/9 104/109/9 103/110/9
f 48/42/10 47/111/10 42/112/10 41/43/10
f 90/113/7 89/114/7 94/115/7 93/116/7 92/117/7 91/118/7
f 95/119/1 97/120/1 98/121/1 99/122/1 100/123/1 96/124/1
f 94/125/5 89/126/5 96/127/5 100/128/5
f 92/129/10 93/130/10 99/131/10 98/132/10
f 90/133/9 91/134/9 97/135/9 95/136/9
f 93/137/8 94/138/8 100/139/8 99/140/8
f 91/141/4 92/129/4 98/132/4 97/142/4
f 89/126/6 90/143/6 95/144/6 96/127/6
s 1
f 71/145/8 72/146/11 9/147/11 10/148/8
f 69/149/12 70/150/13 11/151/13 12/152/12
f 67/153/9 68/154/14 13/155/14 14/156/9
f 66/157/15 65/158/16 16/159/16 15/160/15
f 72/161/11 66/157/15 15/160/15 9/162/11
f 70/163/13 71/145/8 10/148/8 11/164/13
f 68/165/14 69/149/12 12/152/12 13/166/14
f 65/167/16 67/153/9 14/156/9 16/168/16
f 32/169/17 40/170/18 39/171/19 31/172/20
f 30/173/21 38/174/22 37/175/23 29/176/23
f 28/177/24 36/178/25 35/179/26 27/180/27
f 26/181/28 33/182/29 34/183/30 25/184/30
f 25/184/30 34/183/30 40/185/18 32/186/17
f 31/172/20 39/171/19 38/187/22 30/188/21
f 29/176/23 37/175/23 36/189/25 28/190/24
f 27/180/27 35/179/26 33/191/29 26/192/28
f 51/193/16 50/194/9 79/195/9 78/196/16
f 52/197/15 51/198/16 78/199/16 77/200/15
f 56/201/13 54/202/8 75/203/8 73/204/13
f 55/205/12 56/206/13 73/207/13 74/208/12
f 50/194/9 49/209/14 80/210/14 79/195/9
f 49/211/14 55/205/12 74/208/12 80/212/14
f 54/202/8 53/213/11 76/214/11 75/203/8
f 53/215/11 52/197/15 77/200/15 76/216/11
f 88/92/31 87/91/32 56/217/32 55/218/31
f 1/100/33 2/99/34 65/219/34 66/220/33
f 2/99/34 3/106/35 67/221/35 65/219/34
f 3/106/35 4/105/36 68/222/36 67/221/35
f 4/105/36 5/104/31 69/223/31 68/222/36
f 5/104/31 6/103/32 70/224/32 69/223/31
f 6/103/32 7/102/37 71/225/37 70/224/32
f 7/102/37 8/101/38 72/226/38 71/225/37
f 8/101/38 1/100/33 66/220/33 72/226/38
f 81/93/36 88/92/31 55/218/31 49/227/36
f 83/95/34 82/94/35 50/228/35 51/229/34
f 85/97/38 84/96/33 52/230/33 53/231/38
f 87/91/32 86/98/37 54/232/37 56/217/32
f 82/94/35 81/93/36 49/227/36 50/228/35
f 84/96/33 83/95/34 51/229/34 52/230/33
f 86/98/37 85/97/38 53/231/38 54/232/37
f 17/12/39 18/11/40 106/233/40 105/234/39
f 19/10/41 20/9/42 108/235/42 107/236/41
f 20/9/42 21/8/43 109/237/43 108/235/42
f 21/8/43 22/7/44 110/238/44 109/237/43
f 22/7/44 23/6/45 111/239/45 110/238/44
f 23/6/45 24/5/46 112/240/46 111/239/45
f 24/5/46 17/12/39 105/234/39 112/240/46
f 18/11/40 19/10/41 107/236/41 106/233/40
f 63/67/44 62/66/45 114/241/45 113/242/44
f 59/63/40 58/62/41 116/243/41 115/244/40
f 57/61/42 64/68/43 118/245/43 117/246/42
f 62/66/45 61/65/46 119/247/46 114/241/45
f 60/64/39 59/63/40 115/244/40 120/248/39
f 58/62/41 57/61/42 117/246/42 116/243/41
f 64/68/43 63/67/44 113/242/44 118/245/43
f 61/65/46 60/64/39 120/248/39 119/247/46
