# Exported from Wings 3D 1.5.4
mtllib water_world.mtl
o Cube1_copy2
#4 vertices, 2 faces
v -1.0000000e+4 -1.0000000e-3 1.0000000e+4
v -1.0000000e+4 -1.0000000e-3 -1.0000000e+4
v 1.0000000e+4 -1.0000000e-3 1.0000000e+4
v 1.0000000e+4 -1.0000000e-3 -1.0000000e+4
vt -155.12500000 -155.12500000
vt -155.12500000 156.12500000
vt 156.12500000 -155.12500000
vt 156.12500000 156.12500000
vn 0.0000000e+0 -1.00000000 -1.2246469e-16
vn 0.0000000e+0 -1.00000000 -1.2246469e-16
vn 0.0000000e+0 -1.00000000 -1.2246469e-16
vn 0.0000000e+0 -1.00000000 -1.2246469e-16
g Cube1_copy2
usemtl Cube1_auv
s 1
f 1/2/1 4/3/4 3/4/3
f 2/1/2 4/3/4 1/2/1
o Cube1_extract2
#4 vertices, 2 faces
v -1.0000000e+4 0.0000000e+0 -1.0000000e+4
v -1.0000000e+4 0.0000000e+0 1.0000000e+4
v 1.0000000e+4 0.0000000e+0 -1.0000000e+4
v 1.0000000e+4 0.0000000e+0 1.0000000e+4
vt -155.12500000 -155.12500000
vt -155.12500000 156.12500000
vt 156.12500000 -155.12500000
vt 156.12500000 156.12500000
vn 0.0000000e+0 1.00000000 0.0000000e+0
vn 0.0000000e+0 1.00000000 0.0000000e+0
vn 0.0000000e+0 1.00000000 0.0000000e+0
vn 0.0000000e+0 1.00000000 0.0000000e+0
g Cube1_extract2
usemtl Cube1_auv
s 1
f 5/6/5 8/7/8 7/8/7
f 6/5/6 8/7/8 5/6/5
